<svg xmlns="http://www.w3.org/2000/svg" viewBox="0 0 512 512"><g stroke="#FFF" stroke-width="20" stroke-miterlimit="10"><path fill="none" d="M263 492.8C128.4 492.8 19.2 383.6 19.2 249M249 492.7c134.6 0 243.8-109.1 243.8-243.8M157.2 393.7c24.6 40.8 59.4 74.9 100.8 98.7M256 9.8v492.5m-7-483.1c134.6 0 243.8 109.1 243.8 243.8M357.7 123.4C333 81 297.5 45.7 255 21.2"/><path fill="#FFF" d="M247 118h199.9"/><path fill="none" d="M262.5 19.2C127.8 19.2 18.7 128.4 18.7 263m136.9-142.7c24.6-41 59.4-75.1 100.9-99.1"/><path fill="#FFF" d="M264.5 118h-200"/><path fill="none" d="M352.5 397.2c-24.4 38.5-57.9 70.7-97.5 93.5"/><path fill="#FFF" d="M247 391.8h199.9m-382.8.2h198.6"/></g><path fill="none" stroke="#FFF" stroke-width="30" stroke-miterlimit="10" d="M157.2 316.3V192.5"/><path fill="#FFF" d="M157.4 214.5h-.4c-8.2 0-14.8-6.6-14.8-14.8v-18.9c0-8.2 6.6-14.8 14.8-14.8h.4c8.2 0 14.8 6.6 14.8 14.8v18.9c0 8.2-6.6 14.8-14.8 14.8zm0 131.4h-.4c-8.2 0-14.8-6.6-14.8-14.8v-18.9c0-8.2 6.6-14.8 14.8-14.8h.4c8.2 0 14.8 6.6 14.8 14.8v18.9c0 8.2-6.6 14.8-14.8 14.8z"/><path fill="none" stroke="#FFF" stroke-width="30" stroke-miterlimit="10" d="M326 188.2v124.7c0 9.4 7.6 17 17 17h80.6"/><path fill="#FFF" d="M325.8 215.4h.4c8.2 0 14.8-6.6 14.8-14.8v-18.9c0-8.2-6.6-14.8-14.8-14.8h-.4c-8.2 0-14.8 6.6-14.8 14.8v18.9c0 8.2 6.6 14.8 14.8 14.8zm115.3 114.8v-.4c0-8.2-6.6-14.8-14.8-14.8h-18.9c-8.2 0-14.8 6.6-14.8 14.8v.4c0 8.2 6.6 14.8 14.8 14.8h18.9c8.2 0 14.8-6.7 14.8-14.8z"/></svg>